<?xml version="1.0" standalone="no"?>
<svg xmlns="http://www.w3.org/2000/svg" xmlns:xlink="http://www.w3.org/1999/xlink" width="804pt" height="332pt" viewBox="0.00 0.00 804.37 332.00">
<g id="graph0" class="graph" transform="translate(4,328) scale(1)" data-name="G">

<polygon fill="white" stroke="transparent" points="-4,4 -4,-328 800.37,-328 800.37,4 -4,4" style=""/>
<!-- Chainwhiz_Poster_NFT -->
<g id="node1" class="node" pointer-events="visible" data-name="Chainwhiz_Poster_NFT">

<ellipse fill="none" stroke="black" cx="104.91" cy="-306" rx="104.82" ry="18" style=""/>
<text text-anchor="middle" x="104.91" y="-301.8" font-family="Times,serif" font-size="14.00" style="">Chainwhiz_Poster_NFT</text>
</g>
<!-- ERC721 -->
<g id="node2" class="node" pointer-events="visible" data-name="ERC721">

<ellipse fill="none" stroke="black" cx="158.91" cy="-234" rx="44.1" ry="18" style=""/>
<text text-anchor="middle" x="158.91" y="-229.8" font-family="Times,serif" font-size="14.00" style="">ERC721</text>
</g>
<!-- Chainwhiz_Poster_NFT&#45;&gt;ERC721 -->
<g id="edge1" class="edge" data-name="Chainwhiz_Poster_NFT-&gt;ERC721">

<path fill="none" stroke="black" d="M117.98,-288.05C124.64,-279.42 132.86,-268.76 140.19,-259.27" style=""/>
<polygon fill="black" stroke="black" points="142.99,-261.36 146.33,-251.31 137.45,-257.09 142.99,-261.36" style=""/>
</g>
<!-- Ownable -->
<g id="node3" class="node" pointer-events="visible" data-name="Ownable">

<ellipse fill="none" stroke="black" cx="50.91" cy="-234" rx="45.79" ry="18" style=""/>
<text text-anchor="middle" x="50.91" y="-229.8" font-family="Times,serif" font-size="14.00" style="">Ownable</text>
</g>
<!-- Chainwhiz_Poster_NFT&#45;&gt;Ownable -->
<g id="edge2" class="edge" data-name="Chainwhiz_Poster_NFT-&gt;Ownable">

<path fill="none" stroke="black" d="M91.84,-288.05C85.34,-279.63 77.35,-269.28 70.17,-259.97" style=""/>
<polygon fill="black" stroke="black" points="72.74,-257.57 63.86,-251.79 67.2,-261.84 72.74,-257.57" style=""/>
</g>
<!-- Context -->
<g id="node4" class="node" pointer-events="visible" data-name="Context">

<ellipse fill="none" stroke="black" cx="50.91" cy="-162" rx="41.73" ry="18" style=""/>
<text text-anchor="middle" x="50.91" y="-157.8" font-family="Times,serif" font-size="14.00" style="">Context</text>
</g>
<!-- ERC721&#45;&gt;Context -->
<g id="edge3" class="edge" data-name="ERC721-&gt;Context">

<path fill="none" stroke="black" d="M136.27,-218.33C120.47,-208.08 99.18,-194.29 81.82,-183.04" style=""/>
<polygon fill="black" stroke="black" points="83.44,-179.92 73.15,-177.42 79.64,-185.79 83.44,-179.92" style=""/>
</g>
<!-- ERC165 -->
<g id="node5" class="node" pointer-events="visible" data-name="ERC165">

<ellipse fill="none" stroke="black" cx="120.91" cy="-90" rx="44.1" ry="18" style=""/>
<text text-anchor="middle" x="120.91" y="-85.8" font-family="Times,serif" font-size="14.00" style="">ERC165</text>
</g>
<!-- ERC721&#45;&gt;ERC165 -->
<g id="edge4" class="edge" data-name="ERC721-&gt;ERC165">

<path fill="none" stroke="black" d="M154.32,-215.87C147.82,-191.56 135.85,-146.82 128.14,-118.01" style=""/>
<polygon fill="black" stroke="black" points="131.47,-116.94 125.51,-108.19 124.71,-118.75 131.47,-116.94" style=""/>
</g>
<!-- IERC721 -->
<g id="node6" class="node" pointer-events="visible" data-name="IERC721">

<ellipse fill="none" stroke="black" cx="230.91" cy="-90" rx="47.53" ry="18" style=""/>
<text text-anchor="middle" x="230.91" y="-85.8" font-family="Times,serif" font-size="14.00" style="">IERC721</text>
</g>
<!-- ERC721&#45;&gt;IERC721 -->
<g id="edge5" class="edge" data-name="ERC721-&gt;IERC721">

<path fill="none" stroke="black" d="M159.68,-215.94C161.16,-197.26 165.46,-166.9 177.91,-144 184.17,-132.48 193.72,-121.81 202.99,-113.12" style=""/>
<polygon fill="black" stroke="black" points="205.5,-115.57 210.64,-106.3 200.84,-110.34 205.5,-115.57" style=""/>
</g>
<!-- IERC721Metadata -->
<g id="node7" class="node" pointer-events="visible" data-name="IERC721Metadata">

<ellipse fill="none" stroke="black" cx="269.91" cy="-162" rx="83.39" ry="18" style=""/>
<text text-anchor="middle" x="269.91" y="-157.8" font-family="Times,serif" font-size="14.00" style="">IERC721Metadata</text>
</g>
<!-- ERC721&#45;&gt;IERC721Metadata -->
<g id="edge6" class="edge" data-name="ERC721-&gt;IERC721Metadata">

<path fill="none" stroke="black" d="M181.91,-218.5C197.37,-208.74 218.04,-195.71 235.45,-184.73" style=""/>
<polygon fill="black" stroke="black" points="237.63,-187.49 244.22,-179.2 233.9,-181.57 237.63,-187.49" style=""/>
</g>
<!-- Ownable&#45;&gt;Context -->
<g id="edge10" class="edge" data-name="Ownable-&gt;Context">

<path fill="none" stroke="black" d="M50.91,-215.7C50.91,-207.98 50.91,-198.71 50.91,-190.11" style=""/>
<polygon fill="black" stroke="black" points="54.41,-190.1 50.91,-180.1 47.41,-190.1 54.41,-190.1" style=""/>
</g>
<!-- IERC165 -->
<g id="node8" class="node" pointer-events="visible" data-name="IERC165">

<ellipse fill="none" stroke="black" cx="175.91" cy="-18" rx="47.53" ry="18" style=""/>
<text text-anchor="middle" x="175.91" y="-13.8" font-family="Times,serif" font-size="14.00" style="">IERC165</text>
</g>
<!-- ERC165&#45;&gt;IERC165 -->
<g id="edge9" class="edge" data-name="ERC165-&gt;IERC165">

<path fill="none" stroke="black" d="M133.94,-72.41C140.72,-63.78 149.14,-53.06 156.66,-43.5" style=""/>
<polygon fill="black" stroke="black" points="159.54,-45.5 162.97,-35.47 154.04,-41.17 159.54,-45.5" style=""/>
</g>
<!-- IERC721&#45;&gt;IERC165 -->
<g id="edge7" class="edge" data-name="IERC721-&gt;IERC165">

<path fill="none" stroke="black" d="M217.87,-72.41C211.09,-63.78 202.67,-53.06 195.16,-43.5" style=""/>
<polygon fill="black" stroke="black" points="197.78,-41.17 188.85,-35.47 192.27,-45.5 197.78,-41.17" style=""/>
</g>
<!-- IERC721Metadata&#45;&gt;IERC721 -->
<g id="edge8" class="edge" data-name="IERC721Metadata-&gt;IERC721">

<path fill="none" stroke="black" d="M260.47,-144.05C255.87,-135.8 250.24,-125.7 245.14,-116.54" style=""/>
<polygon fill="black" stroke="black" points="248.19,-114.82 240.26,-107.79 242.07,-118.23 248.19,-114.82" style=""/>
</g>
<!-- IERC721Receiver -->
<g id="node9" class="node" pointer-events="visible" data-name="IERC721Receiver">

<ellipse fill="none" stroke="black" cx="309.91" cy="-306" rx="81.66" ry="18" style=""/>
<text text-anchor="middle" x="309.91" y="-301.8" font-family="Times,serif" font-size="14.00" style="">IERC721Receiver</text>
</g>
<!-- Address -->
<g id="node10" class="node" pointer-events="visible" data-name="Address">

<ellipse fill="none" stroke="black" cx="452.91" cy="-306" rx="42.86" ry="18" style=""/>
<text text-anchor="middle" x="452.91" y="-301.8" font-family="Times,serif" font-size="14.00" style="">Address</text>
</g>
<!-- Strings -->
<g id="node11" class="node" pointer-events="visible" data-name="Strings">

<ellipse fill="none" stroke="black" cx="551.91" cy="-306" rx="38.3" ry="18" style=""/>
<text text-anchor="middle" x="551.91" y="-301.8" font-family="Times,serif" font-size="14.00" style="">Strings</text>
</g>
<!-- Counters -->
<g id="node12" class="node" pointer-events="visible" data-name="Counters">

<ellipse fill="none" stroke="black" cx="653.91" cy="-306" rx="45.81" ry="18" style=""/>
<text text-anchor="middle" x="653.91" y="-301.8" font-family="Times,serif" font-size="14.00" style="">Counters</text>
</g>
<!-- Base64 -->
<g id="node13" class="node" pointer-events="visible" data-name="Base64">

<ellipse fill="none" stroke="black" cx="756.91" cy="-306" rx="39.43" ry="18" style=""/>
<text text-anchor="middle" x="756.91" y="-301.8" font-family="Times,serif" font-size="14.00" style="">Base64</text>
</g>
</g>
</svg>